<svg xmlns="http://www.w3.org/2000/svg" data-name="Layer 1" viewBox="0 0 64 64"><path fill="#2b2e63" d="M56.87,54.5a2.77,2.77,0,0,1-.3,2.7,3.54,3.54,0,0,1-2,1.38v.34a1,1,0,0,1-1.94,0v-.35a3.2,3.2,0,0,1-2.56-3.08,1,1,0,0,1,1-.94h0a1,1,0,0,1,.94,1c0,.8.93,1.22,1.59,1.24h0A1.79,1.79,0,0,0,55,56.1a.86.86,0,0,0,.1-.86,1.59,1.59,0,0,0-1.2-.71l-.51-.06A4,4,0,0,1,51.63,54a3.13,3.13,0,0,1-1.25-1.3,3,3,0,0,1,.19-2.88,3.46,3.46,0,0,1,2.08-1.46V48a1,1,0,1,1,1.94,0v.39A3.47,3.47,0,0,1,57.13,51a1,1,0,0,1-1.91.36,1.54,1.54,0,0,0-1.56-1.19,1.7,1.7,0,0,0-1.46.67,1,1,0,0,0-.07,1,1.25,1.25,0,0,0,.49.48,2,2,0,0,0,.93.2c.22,0,.44,0,.67.1A3.31,3.31,0,0,1,56.87,54.5Z"/><path fill="#2b2e63" d="M54.58,43.13V20.88A10.39,10.39,0,1,0,43.28,9.57H20.73A10.39,10.39,0,1,0,9.42,20.88V43.13a10.38,10.38,0,1,0,11.31,11.3H43.28a10.38,10.38,0,1,0,11.3-11.3ZM53.61,19a8.42,8.42,0,0,1-6.89-3.58h2.12a1,1,0,0,0,1-1V10.23l3.08,3.43a1,1,0,0,0,1.45,0l3.08-3.43v4.21a1,1,0,0,0,1,1h2.12A8.42,8.42,0,0,1,53.61,19ZM21,32A11,11,0,1,1,32,43,11,11,0,0,1,21,32Zm1.17,8.39L17,45.5a10.21,10.21,0,0,0-5.68-2.37V20.88A10.35,10.35,0,0,0,17,18.51l5.15,5.12a12.86,12.86,0,0,0,0,16.75ZM44.92,32a12.83,12.83,0,0,0-3.11-8.36L47,18.51a10.35,10.35,0,0,0,5.68,2.37V43.13A10.21,10.21,0,0,0,47,45.5l-5.15-5.12A12.91,12.91,0,0,0,44.92,32ZM53.61,2.1a8.43,8.43,0,0,1,7.92,11.37H59.36V7.69a1,1,0,0,0-1.7-.64l-4,4.52-4-4.52a1,1,0,0,0-1.06-.27,1,1,0,0,0-.63.91v5.78H45.7A8.43,8.43,0,0,1,53.61,2.1ZM43.28,11.51a10.34,10.34,0,0,0,2.31,5.63l-5.15,5.1a12.88,12.88,0,0,0-16.88,0l-5.15-5.1a10.42,10.42,0,0,0,2.32-5.63Zm-41.34-1A8.45,8.45,0,1,1,10.39,19,8.45,8.45,0,0,1,1.94,10.53Zm8.45,51.38a8.45,8.45,0,1,1,8.45-8.46A8.47,8.47,0,0,1,10.39,61.91ZM20.73,52.5a10.39,10.39,0,0,0-2.32-5.64l5.15-5.11a12.82,12.82,0,0,0,16.88,0l5.15,5.11a10.31,10.31,0,0,0-2.31,5.64Zm32.88,9.41a8.45,8.45,0,1,1,8.45-8.46A8.47,8.47,0,0,1,53.61,61.91Z"/><path fill="#ffdc7c" d="M10.39 45a8.45 8.45 0 1 0 8.45 8.44A8.46 8.46 0 0 0 10.39 45zm4.22 10.34a.35.35 0 0 1 0 .06l-.06.18a.28.28 0 0 1 0 .08s0 .08-.05.1L11.17 60.2a1 1 0 0 1-1.56 0L6.34 55.77a.88.88 0 0 1-.06-.1.29.29 0 0 1 0-.08.55.55 0 0 1-.06-.18.35.35 0 0 1 0-.06.69.69 0 0 1 0-.25s0 0 0-.05 0-.12 0-.16a0 0 0 0 0 0 0l0 0 3.26-7.91a1 1 0 0 1 .9-.59 1 1 0 0 1 .89.59l3.27 7.91a0 0 0 0 1 0 0 0 0 0 0 0 0 0 .75.75 0 0 1 0 .16s0 0 0 .05A1 1 0 0 1 14.61 55.35zM10.39 2.1a8.44 8.44 0 1 0 8.45 8.43A8.45 8.45 0 0 0 10.39 2.1zm2.48 13.38H8.8A1 1 0 0 1 8 15.1a1 1 0 0 1-.18-.82l.6-2.6-.06 0a1 1 0 0 1-.49.13 1 1 0 0 1-.5-1.8l1.66-1 .62-2.71a1 1 0 0 1 1.16-.72 1 1 0 0 1 .73 1.17l-.21.92a1 1 0 0 1 .9 1.69l-1.5.9L10 13.53h2.85a1 1 0 0 1 0 2zM60.51 15.4a8.43 8.43 0 0 1-13.79 0h2.12a1 1 0 0 0 1-1V10.23l3.08 3.43a1 1 0 0 0 1.45 0l3.08-3.43v4.21a1 1 0 0 0 1 1z"/><path fill="#ecc25d" d="M62.06 10.53a8.38 8.38 0 0 1-.53 2.94H59.36V7.69a1 1 0 0 0-1.7-.64l-4 4.52-4-4.52a1 1 0 0 0-1.06-.27 1 1 0 0 0-.63.91v5.78H45.7a8.44 8.44 0 1 1 16.36-2.94zM60.51 15.4a8.43 8.43 0 0 1-13.79 0H48a7.42 7.42 0 0 0 11.25 0z"/><path fill="#e3b348" d="M62.06,10.53a8.38,8.38,0,0,1-.53,2.94H60.46a7.44,7.44,0,1,0-14.29-2.94,7.56,7.56,0,0,0,.59,2.94H45.7a8.44,8.44,0,1,1,16.36-2.94Z"/><path fill="#ffdc7c" d="M53.61,45a8.45,8.45,0,1,0,8.45,8.44A8.46,8.46,0,0,0,53.61,45Zm-1.48,6.84a1.25,1.25,0,0,0,.49.48,2,2,0,0,0,.93.2c.22,0,.44,0,.67.1a3.31,3.31,0,0,1,2.65,1.87,2.77,2.77,0,0,1-.3,2.7,3.54,3.54,0,0,1-2,1.38v.34a1,1,0,0,1-1.94,0v-.35a3.2,3.2,0,0,1-2.56-3.08,1,1,0,0,1,1-.94h0a1,1,0,0,1,.94,1c0,.8.93,1.22,1.59,1.24h0A1.79,1.79,0,0,0,55,56.1a.86.86,0,0,0,.1-.86,1.59,1.59,0,0,0-1.2-.71l-.51-.06A4,4,0,0,1,51.63,54a3.13,3.13,0,0,1-1.25-1.3,3,3,0,0,1,.19-2.88,3.46,3.46,0,0,1,2.08-1.46V48a1,1,0,1,1,1.94,0v.39A3.47,3.47,0,0,1,57.13,51a1,1,0,0,1-1.91.36,1.54,1.54,0,0,0-1.56-1.19,1.7,1.7,0,0,0-1.46.67A1,1,0,0,0,52.13,51.85Z"/><path fill="#ecc25d" d="M32,21A11,11,0,1,0,43,32,11,11,0,0,0,32,21Zm0,20.63A9.65,9.65,0,1,1,41.64,32,9.66,9.66,0,0,1,32,41.65Z"/><path fill="#e3b348" d="M32,21A11,11,0,1,0,43,32,11,11,0,0,0,32,21Zm0,21.46A10.48,10.48,0,1,1,42.48,32,10.5,10.5,0,0,1,32,42.48Z"/><path fill="#2b2e63" d="M13.84 14.51a1 1 0 0 1-1 1H8.8A1 1 0 0 1 8 15.1a1 1 0 0 1-.18-.82l.6-2.6-.06 0a1 1 0 0 1-.49.13 1 1 0 0 1-.5-1.8l1.66-1 .62-2.71a1 1 0 0 1 1.16-.72 1 1 0 0 1 .73 1.17l-.21.92a1 1 0 0 1 .9 1.69l-1.5.9L10 13.53h2.85A1 1 0 0 1 13.84 14.51zM14.61 55.05a.75.75 0 0 0 0-.16 0 0 0 0 1 0 0 0 0 0 0 0 0 0l-3.27-7.91a1 1 0 0 0-.89-.59 1 1 0 0 0-.9.59L6.23 54.83l0 0a0 0 0 0 1 0 0s0 .11 0 .16 0 0 0 .05a.69.69 0 0 0 0 .25.35.35 0 0 0 0 .06.55.55 0 0 0 .06.18.29.29 0 0 0 0 .08.88.88 0 0 0 .06.1L9.61 60.2a1 1 0 0 0 1.56 0l3.27-4.43s0-.07.05-.1a.28.28 0 0 0 0-.08l.06-.18a.35.35 0 0 0 0-.06 1 1 0 0 0 0-.25S14.61 55.07 14.61 55.05zm-4.22-5.22L12 53.7l-1.33-.38a1.28 1.28 0 0 0-.27 0 1.28 1.28 0 0 0-.27 0l-1.33.38zm0 8.17L8.73 55.75l1.66-.5 1.66.5z"/><path fill="#ecc25d" d="M12,53.7l-1.33-.38a1.28,1.28,0,0,0-.27,0,1.28,1.28,0,0,0-.27,0l-1.33.38,1.6-3.87Z"/><polygon fill="#ecc25d" points="12.05 55.74 10.39 57.99 8.73 55.74 10.39 55.26 12.05 55.74"/><path fill="#2b2e63" d="M34.6,31.6A2.65,2.65,0,0,0,35.16,30a2.61,2.61,0,0,0-1-2.13,3.44,3.44,0,0,0-1.59-.68v-.46a1,1,0,1,0-1.94,0v.38a8.87,8.87,0,0,0-1.3.16,1,1,0,0,0-.77.94V35.9a1,1,0,0,0,.84,1,8.61,8.61,0,0,0,1.23.09v.39a1,1,0,0,0,1.94,0v-.5a3.81,3.81,0,0,0,1.93-.89,3.05,3.05,0,0,0,1-2.27A2.84,2.84,0,0,0,34.6,31.6ZM30.49,29a8.09,8.09,0,0,1,.89,0h.23a2.15,2.15,0,0,1,1.35.37.69.69,0,0,1,.26.6.89.89,0,0,1-.58.77H30.49Zm2.67,5.52A3.17,3.17,0,0,1,31.1,35h-.61V32.65h2.15a1.08,1.08,0,0,1,.87,1A1.11,1.11,0,0,1,33.16,34.53Z"/><path fill="#2b2e63" d="M32,22.35A9.65,9.65,0,1,0,41.64,32,9.66,9.66,0,0,0,32,22.35ZM32,39.7A7.7,7.7,0,1,1,39.71,32,7.71,7.71,0,0,1,32,39.7Z"/><path fill="#ffdc7c" d="M32,24.3A7.7,7.7,0,1,0,39.71,32,7.71,7.71,0,0,0,32,24.3Zm2.49,11.64a3.81,3.81,0,0,1-1.93.89v.5a1,1,0,0,1-1.94,0v-.39a8.61,8.61,0,0,1-1.23-.09,1,1,0,0,1-.84-1V28.16a1,1,0,0,1,.77-.94,8.87,8.87,0,0,1,1.3-.16v-.38a1,1,0,1,1,1.94,0v.46a3.44,3.44,0,0,1,1.59.68,2.61,2.61,0,0,1,1,2.13,2.65,2.65,0,0,1-.56,1.65,2.84,2.84,0,0,1,.85,2.07A3.05,3.05,0,0,1,34.49,35.94Z"/><path fill="#ecc25d" d="M10.39 45a8.45 8.45 0 1 0 8.45 8.44A8.46 8.46 0 0 0 10.39 45zm0 15.9a7.45 7.45 0 1 1 7.45-7.46A7.46 7.46 0 0 1 10.39 60.91zM10.39 2.1a8.44 8.44 0 1 0 8.45 8.43A8.45 8.45 0 0 0 10.39 2.1zm0 15.88a7.44 7.44 0 1 1 7.45-7.45A7.45 7.45 0 0 1 10.39 18zM53.61 45a8.45 8.45 0 1 0 8.45 8.44A8.46 8.46 0 0 0 53.61 45zm0 15.9a7.45 7.45 0 1 1 7.45-7.46A7.46 7.46 0 0 1 53.61 60.91zM32 24.3A7.7 7.7 0 1 0 39.71 32 7.71 7.71 0 0 0 32 24.3zm0 14.4A6.7 6.7 0 1 1 38.71 32 6.72 6.72 0 0 1 32 38.7z"/><path fill="#ffdc7c" d="M33.22 30a.89.89 0 0 1-.58.77H30.49V29a8.09 8.09 0 0 1 .89 0h.23a2.15 2.15 0 0 1 1.35.37A.69.69 0 0 1 33.22 30zM33.51 33.67a1.11 1.11 0 0 1-.35.86A3.17 3.17 0 0 1 31.1 35h-.61V32.65h2.15A1.08 1.08 0 0 1 33.51 33.67z"/></svg>